<mxfile host="app.diagrams.net" modified="2023-10-07T19:31:02.394Z" agent="Mozilla/5.0 (Macintosh; Intel Mac OS X 10_15_7) AppleWebKit/537.36 (KHTML, like Gecko) Chrome/117.0.0.0 Safari/537.36" etag="s3-g3Myicoznk2XdaAI9" version="21.8.2" type="device">
  <diagram name="Page-1" id="CxLP4lPzci0cUr3s7OLw">
    <mxGraphModel dx="1414" dy="777" grid="1" gridSize="10" guides="1" tooltips="1" connect="1" arrows="1" fold="1" page="1" pageScale="1" pageWidth="850" pageHeight="1100" math="0" shadow="0">
      <root>
        <mxCell id="0" />
        <mxCell id="1" parent="0" />
        <mxCell id="jIkKoGsTZ2zbRqLLl52K-2" value="" style="shape=flexArrow;endArrow=classic;html=1;rounded=0;fillColor=#dae8fc;strokeColor=#6c8ebf;" parent="1" edge="1">
          <mxGeometry width="50" height="50" relative="1" as="geometry">
            <mxPoint x="220" y="299.5" as="sourcePoint" />
            <mxPoint x="350" y="299.5" as="targetPoint" />
          </mxGeometry>
        </mxCell>
        <mxCell id="jIkKoGsTZ2zbRqLLl52K-5" value="" style="sketch=0;outlineConnect=0;fontColor=#232F3E;gradientColor=none;fillColor=#232F3D;strokeColor=none;dashed=0;verticalLabelPosition=bottom;verticalAlign=top;align=center;html=1;fontSize=12;fontStyle=0;aspect=fixed;pointerEvents=1;shape=mxgraph.aws4.gear;" parent="1" vertex="1">
          <mxGeometry x="360" y="220" width="160" height="160" as="geometry" />
        </mxCell>
        <mxCell id="jIkKoGsTZ2zbRqLLl52K-6" value="&lt;font style=&quot;font-size: 36px;&quot;&gt;Hidden Layers&lt;/font&gt;" style="text;html=1;strokeColor=none;fillColor=none;align=center;verticalAlign=middle;whiteSpace=wrap;rounded=0;" parent="1" vertex="1">
          <mxGeometry x="372.5" y="100" width="135" height="80" as="geometry" />
        </mxCell>
        <mxCell id="jIkKoGsTZ2zbRqLLl52K-7" value="" style="shape=flexArrow;endArrow=classic;html=1;rounded=0;fillColor=#dae8fc;strokeColor=#6c8ebf;" parent="1" edge="1">
          <mxGeometry width="50" height="50" relative="1" as="geometry">
            <mxPoint x="530" y="294.5" as="sourcePoint" />
            <mxPoint x="660" y="294.5" as="targetPoint" />
          </mxGeometry>
        </mxCell>
        <mxCell id="jIkKoGsTZ2zbRqLLl52K-11" value="" style="verticalLabelPosition=bottom;verticalAlign=top;html=1;shape=mxgraph.basic.tick;fontSize=36;fillColor=#00FF00;" parent="1" vertex="1">
          <mxGeometry x="732" y="250" width="51" height="60" as="geometry" />
        </mxCell>
        <mxCell id="jIkKoGsTZ2zbRqLLl52K-12" value="&lt;font style=&quot;font-size: 36px;&quot;&gt;Input&lt;/font&gt;" style="text;html=1;strokeColor=none;fillColor=none;align=center;verticalAlign=middle;whiteSpace=wrap;rounded=0;" parent="1" vertex="1">
          <mxGeometry x="46.25" y="100" width="135" height="80" as="geometry" />
        </mxCell>
        <mxCell id="jIkKoGsTZ2zbRqLLl52K-13" value="&lt;font style=&quot;font-size: 36px;&quot;&gt;Output&lt;/font&gt;" style="text;html=1;strokeColor=none;fillColor=none;align=center;verticalAlign=middle;whiteSpace=wrap;rounded=0;" parent="1" vertex="1">
          <mxGeometry x="690" y="100" width="135" height="80" as="geometry" />
        </mxCell>
        <mxCell id="jIkKoGsTZ2zbRqLLl52K-17" value="Hot Dog!" style="text;html=1;strokeColor=none;fillColor=none;align=center;verticalAlign=middle;whiteSpace=wrap;rounded=0;fontSize=36;" parent="1" vertex="1">
          <mxGeometry x="660" y="320" width="180" height="30" as="geometry" />
        </mxCell>
        <mxCell id="ZhbnRTZWa9wUrOs-t71T-1" value="" style="shape=image;imageAspect=0;aspect=fixed;verticalLabelPosition=bottom;verticalAlign=top;image=data:image/jpeg,/9j/4gxYSUNDX1BST0ZJTEUAAQEAAAxITGlubwIQAABtbnRyUkdCIFhZWiAHzgACAAkABgAxAABhY3NwTVNGVAAAAABJRUMgc1JHQgAAAAAAAAAAAAAAAAAA9tYAAQAAAADTLUhQICAAAAAAAAAAAAAAAAAAAAAAAAAAAAAAAAAAAAAAAAAAAAAAAAAAAAAAAAAAAAAAABFjcHJ0AAABUAAAADNkZXNjAAABhAAAAGx3dHB0AAAB8AAAABRia3B0AAACBAAAABRyWFlaAAACGAAAABRnWFlaAAACLAAAABRiWFlaAAACQAAAABRkbW5kAAACVAAAAHBkbWRkAAACxAAAAIh2dWVkAAADTAAAAIZ2aWV3AAAD1AAAACRsdW1pAAAD+AAAABRtZWFzAAAEDAAAACR0ZWNoAAAEMAAAAAxyVFJDAAAEPAAACAxnVFJDAAAEPAAACAxiVFJDAAAEPAAACAx0ZXh0AAAAAENvcHlyaWdodCAoYykgMTk5OCBIZXdsZXR0LVBhY2thcmQgQ29tcGFueQAAZGVzYwAAAAAAAAASc1JHQiBJRUM2MTk2Ni0yLjEAAAAAAAAAAAAAABJzUkdCIElFQzYxOTY2LTIuMQAAAAAAAAAAAAAAAAAAAAAAAAAAAAAAAAAAAAAAAAAAAAAAAAAAAAAAAAAAAAAAAAAAWFlaIAAAAAAAAPNRAAEAAAABFsxYWVogAAAAAAAAAAAAAAAAAAAAAFhZWiAAAAAAAABvogAAOPUAAAOQWFlaIAAAAAAAAGKZAAC3hQAAGNpYWVogAAAAAAAAJKAAAA+EAAC2z2Rlc2MAAAAAAAAAFklFQyBodHRwOi8vd3d3LmllYy5jaAAAAAAAAAAAAAAAFklFQyBodHRwOi8vd3d3LmllYy5jaAAAAAAAAAAAAAAAAAAAAAAAAAAAAAAAAAAAAAAAAAAAAAAAAAAAAAAAAAAAAABkZXNjAAAAAAAAAC5JRUMgNjE5NjYtMi4xIERlZmF1bHQgUkdCIGNvbG91ciBzcGFjZSAtIHNSR0IAAAAAAAAAAAAAAC5JRUMgNjE5NjYtMi4xIERlZmF1bHQgUkdCIGNvbG91ciBzcGFjZSAtIHNSR0IAAAAAAAAAAAAAAAAAAAAAAAAAAAAAZGVzYwAAAAAAAAAsUmVmZXJlbmNlIFZpZXdpbmcgQ29uZGl0aW9uIGluIElFQzYxOTY2LTIuMQAAAAAAAAAAAAAALFJlZmVyZW5jZSBWaWV3aW5nIENvbmRpdGlvbiBpbiBJRUM2MTk2Ni0yLjEAAAAAAAAAAAAAAAAAAAAAAAAAAAAAAAAAAHZpZXcAAAAAABOk/gAUXy4AEM8UAAPtzAAEEwsAA1yeAAAAAVhZWiAAAAAAAEwJVgBQAAAAVx/nbWVhcwAAAAAAAAABAAAAAAAAAAAAAAAAAAAAAAAAAo8AAAACc2lnIAAAAABDUlQgY3VydgAAAAAAAAQAAAAABQAKAA8AFAAZAB4AIwAoAC0AMgA3ADsAQABFAEoATwBUAFkAXgBjAGgAbQByAHcAfACBAIYAiwCQAJUAmgCfAKQAqQCuALIAtwC8AMEAxgDLANAA1QDbAOAA5QDrAPAA9gD7AQEBBwENARMBGQEfASUBKwEyATgBPgFFAUwBUgFZAWABZwFuAXUBfAGDAYsBkgGaAaEBqQGxAbkBwQHJAdEB2QHhAekB8gH6AgMCDAIUAh0CJgIvAjgCQQJLAlQCXQJnAnECegKEAo4CmAKiAqwCtgLBAssC1QLgAusC9QMAAwsDFgMhAy0DOANDA08DWgNmA3IDfgOKA5YDogOuA7oDxwPTA+AD7AP5BAYEEwQgBC0EOwRIBFUEYwRxBH4EjASaBKgEtgTEBNME4QTwBP4FDQUcBSsFOgVJBVgFZwV3BYYFlgWmBbUFxQXVBeUF9gYGBhYGJwY3BkgGWQZqBnsGjAadBq8GwAbRBuMG9QcHBxkHKwc9B08HYQd0B4YHmQesB78H0gflB/gICwgfCDIIRghaCG4IggiWCKoIvgjSCOcI+wkQCSUJOglPCWQJeQmPCaQJugnPCeUJ+woRCicKPQpUCmoKgQqYCq4KxQrcCvMLCwsiCzkLUQtpC4ALmAuwC8gL4Qv5DBIMKgxDDFwMdQyODKcMwAzZDPMNDQ0mDUANWg10DY4NqQ3DDd4N+A4TDi4OSQ5kDn8Omw62DtIO7g8JDyUPQQ9eD3oPlg+zD88P7BAJECYQQxBhEH4QmxC5ENcQ9RETETERTxFtEYwRqhHJEegSBxImEkUSZBKEEqMSwxLjEwMTIxNDE2MTgxOkE8UT5RQGFCcUSRRqFIsUrRTOFPAVEhU0FVYVeBWbFb0V4BYDFiYWSRZsFo8WshbWFvoXHRdBF2UXiReuF9IX9xgbGEAYZRiKGK8Y1Rj6GSAZRRlrGZEZtxndGgQaKhpRGncanhrFGuwbFBs7G2MbihuyG9ocAhwqHFIcexyjHMwc9R0eHUcdcB2ZHcMd7B4WHkAeah6UHr4e6R8THz4faR+UH78f6iAVIEEgbCCYIMQg8CEcIUghdSGhIc4h+yInIlUigiKvIt0jCiM4I2YjlCPCI/AkHyRNJHwkqyTaJQklOCVoJZclxyX3JicmVyaHJrcm6CcYJ0kneierJ9woDSg/KHEooijUKQYpOClrKZ0p0CoCKjUqaCqbKs8rAis2K2krnSvRLAUsOSxuLKIs1y0MLUEtdi2rLeEuFi5MLoIuty7uLyQvWi+RL8cv/jA1MGwwpDDbMRIxSjGCMbox8jIqMmMymzLUMw0zRjN/M7gz8TQrNGU0njTYNRM1TTWHNcI1/TY3NnI2rjbpNyQ3YDecN9c4FDhQOIw4yDkFOUI5fzm8Ofk6Njp0OrI67zstO2s7qjvoPCc8ZTykPOM9Ij1hPaE94D4gPmA+oD7gPyE/YT+iP+JAI0BkQKZA50EpQWpBrEHuQjBCckK1QvdDOkN9Q8BEA0RHRIpEzkUSRVVFmkXeRiJGZ0arRvBHNUd7R8BIBUhLSJFI10kdSWNJqUnwSjdKfUrESwxLU0uaS+JMKkxyTLpNAk1KTZNN3E4lTm5Ot08AT0lPk0/dUCdQcVC7UQZRUFGbUeZSMVJ8UsdTE1NfU6pT9lRCVI9U21UoVXVVwlYPVlxWqVb3V0RXklfgWC9YfVjLWRpZaVm4WgdaVlqmWvVbRVuVW+VcNVyGXNZdJ114XcleGl5sXr1fD19hX7NgBWBXYKpg/GFPYaJh9WJJYpxi8GNDY5dj62RAZJRk6WU9ZZJl52Y9ZpJm6Gc9Z5Nn6Wg/aJZo7GlDaZpp8WpIap9q92tPa6dr/2xXbK9tCG1gbbluEm5rbsRvHm94b9FwK3CGcOBxOnGVcfByS3KmcwFzXXO4dBR0cHTMdSh1hXXhdj52m3b4d1Z3s3gReG54zHkqeYl553pGeqV7BHtje8J8IXyBfOF9QX2hfgF+Yn7CfyN/hH/lgEeAqIEKgWuBzYIwgpKC9INXg7qEHYSAhOOFR4Wrhg6GcobXhzuHn4gEiGmIzokziZmJ/opkisqLMIuWi/yMY4zKjTGNmI3/jmaOzo82j56QBpBukNaRP5GokhGSepLjk02TtpQglIqU9JVflcmWNJaflwqXdZfgmEyYuJkkmZCZ/JpomtWbQpuvnByciZz3nWSd0p5Anq6fHZ+Ln/qgaaDYoUehtqImopajBqN2o+akVqTHpTilqaYapoum/adup+CoUqjEqTepqaocqo+rAqt1q+msXKzQrUStuK4trqGvFq+LsACwdbDqsWCx1rJLssKzOLOutCW0nLUTtYq2AbZ5tvC3aLfguFm40blKucK6O7q1uy67p7whvJu9Fb2Pvgq+hL7/v3q/9cBwwOzBZ8Hjwl/C28NYw9TEUcTOxUvFyMZGxsPHQce/yD3IvMk6ybnKOMq3yzbLtsw1zLXNNc21zjbOts83z7jQOdC60TzRvtI/0sHTRNPG1EnUy9VO1dHWVdbY11zX4Nhk2OjZbNnx2nba+9uA3AXcit0Q3ZbeHN6i3ynfr+A24L3hROHM4lPi2+Nj4+vkc+T85YTmDeaW5x/nqegy6LzpRunQ6lvq5etw6/vshu0R7ZzuKO6070DvzPBY8OXxcvH/8ozzGfOn9DT0wvVQ9d72bfb794r4Gfio+Tj5x/pX+uf7d/wH/Jj9Kf26/kv+3P9t////7gAhQWRvYmUAZEAAAAABAwAQAwIDBgAAAAAAAAAAAAAAAP/bAIQAAgICAgICAgICAgMCAgIDBAMCAgMEBQQEBAQEBQYFBQUFBQUGBgcHCAcHBgkJCgoJCQwMDAwMDAwMDAwMDAwMDAEDAwMFBAUJBgYJDQoJCg0PDg4ODg8PDAwMDAwPDwwMDAwMDA8MDAwMDAwMDAwMDAwMDAwMDAwMDAwMDAwMDAwM/8IAEQgA4ADgAwERAAIRAQMRAf/EANsAAQACAgMBAQEAAAAAAAAAAAAGBwUIAwQJAgEKAQEAAgMBAQAAAAAAAAAAAAAAAwQCBQYBBxAAAQQCAgICAQQDAAMAAAAAAwECBAUABgcIERIQExQgMHAWIRUJMSIYEQACAQMDAgUBBAYGCAcAAAABAgMRBAUAIRIxBkFRYSITMnGBFAeRoUJyIxUQILHBUjMwcNFiomMkZOGSQ3OTNBYSAAEDAQQHBgQEBgIDAAAAAAEAEQIhMWESA0FRcYGR0SIQ8KGxwTIg4SMEQlJyEzBw8YKSM7IUQGIk/9oADAMBAQIRAxEAAAD38AAAAAAAAAAAAAAAAAAAAAAAAAAAAAAAAAAAAAAAAAAAAAAAAAAAAAAAAAAAAAAAAAAAAAAAAAAAAAAAAAAAAAAAAAAAAAAAAAAAAAAAAAAAAAAAAAAAAAABhoZohTuQrXXYNrb+Likj8c0MitcVjzuyR5mSDYjcaK9N3pgAAAAMXHLXdHYV/rNhANVsITqr0V19vH4TRaObCye4G37U0d+qY9hK9fhD/bUI2N6+9DrY71cXu59A+M29sNYABHsJ9c9ZvKk0u3iWru9CnN28vcllFGYp4r5NGUlY1NnKeD8wUNrVHu+gzup82K4HVzGKtMuPpVfvc5rr/Y/0UHkX907X3v6P5J6h9P8APQK/hueb/Kd1R/H72xYatm9Dq6yo7GqbGy5+Okk/Mear9V0OPytbMcVp7P0OtxdyKhN1LsRxePFY885vqk3Yh9prpsqJ627b3N6+Dbb2MX9r/R5svmnpNtuLzk8I8kuI+h6p8j1laNpkNRltLy2omnAxSrYwUD00uv8A3Eu1nzqLM0nmf9U2FGddchluTH2PfnDV9bOtjLF/qSVPn2O+dfDffLyWtzVqz6E2D2Ge0n0HkfXrv/mI8e+I+l+NUP0q5uDobx/ONPqx3smuPeWPnVR1r09/AZXf3HXdjClgrex+PcOvnW6slWYQ1bSoV7r0+Nzajy8ebs2tr1eRXaNt7WmtpNgdpDtB2fOf0L958dHmVzfd/wA/VH6lW8kGOm13ZwtcuMvVkq8fsXHlHMcatza+KxquF504bm1mF+U48pop4lpLmGilgMV6vrdqrr9mD7JBtqw9qORX63rX2nA+sfQ/PxHIp/IvR/Q/GmLf1JjjbdKG+dN5aNCK5qUd0a1J6GfaxdCCXCVLGAjnhvtutfb8Btzx62xs2MaveYez5j5sfixFI79bdzoud90Ot+V5vKIcHnum/L9V5sfOfodN6/Z5LW58OXnHg6HmfBk4scuNl0s8ulLlxZeYK2jd73HTObzDMxx5KePt2MZRer2TsaPod0PG+ie+4rKZRgauavf+G3H/AFKoNVehEckgpS82Pv745sXZ88+PPfn1w5e/GT8z87WPnWkZyXCU2YZvNHeU2s2r3fObU7rmtjdvoe37iAANXdbv/MLne61a1m8w0E2Fhzee82Dk9drxyHY8cuTklZfHyV5Q7R7XQ7V7XnNl9vz1zbHU/oAAAABBq9yj6G3pyts4hBaxOMvNiymGPO87WWOazinNmlbl7V3RsNR38sAAAAAAAAAAAAAAAAAAAAAAAAAAAAAAAAAAAAAAAAAAAAAAAAAAAAAAAAAAAAAAAAAAAAAAAAAAAAAAAAAAAAAAAAAAAAAAAAAAAAAAAAAAAAAAAAAAAAAP/9oACAECAAEFAP5uNJEFHXMJuF2qAzCboHP7XIIr9gn+f7PIa5NklZ/ZZHgOymesG8DId+28rGYW4iDU21wh4bdWphttnkxbOxkudVGXFigYggxmq0hWY9pSYjI7XTtgrq58PZK6yUs5gGR91glkNcIi1h1KH9JCsGhruMPJG2jZhdmmPx8iylIlJIJi0scWGZXNUUkKI+UQjVRUyw3muGWNyJHR0CYOey52KFWJK5GkPc/ars4IVaacWfpkuI2XJnnHBjunSFGqrUDT7/k8hgG2GyK1JFyUuQpIjF/GCxX2X1ufMk+bPcIsV39tnjfUbTCsUtNphV6TN2nmUzpE9YcGSVbPRbEQ3UZBqCmeR9Pxy1GWXHTvfW9RZVK5GlZK0uEd1dQxa9HhRErFCJoJIjt+Lua5SjYQ6yAxITf7ZTNZP2mVYp/qGsekMDWatqcuwdP43ANLSoMIsevVXUuigjsZVQmYKO0SCa5mGgRpGRoEaKvr7K1qpn1+cl2EWLkndBtWTuM0z/zTSFhD/wDbXSqA3xexUJK+pGpumvnsAx6EwlodRJJNYUcOe2PpMMThgYNn14eMKQ2JVxIiq3ziD84g8+pcIYIsNfwApJ3WKPJe6yHZKv5klxZaI5xPZWRERBQlyMDw6rGv2fF6xRuVGq5qeFR649yuxG/59MQa4gFx/wBbMW3hpjthBhtgI3CbAd2EtUVJVl5V87wryN8CU6oyK8mDrFRAV6IgYyNxg/KRYqK6ni/5+DBYZgqkommH9WMcN2SLWEBC7fHbhtyfhNqlOQ10c2EmCI1LJoGFuPLn2Con5iqjiGfjIT3tFUJjKxqYyCjVHGamfX4Rvq1Goq5HieywIClVjEY34c5GpbbG0LZsuTMWQhnp+KTPxXLiwnrjYHhVr1RFrUXErG+f9WnlK1MSvTBxkdjQNTEGmKiYjPOMA5ytiKuMAzI8ZSLFp3YxjWJ82sRxxmD7I+N4V42+HCb5UKeXR0TPqRMcxPCDTEGmI1PPqnn0RcRPGIxVxIrlxsVvn0aiDiHOkfXTOyPRxhY1qNT9UytGfJFcUWOG12LCR2LB8YsJcSFixMSImfhtxIzc/Ha7Px24oGrg2q5RU8ouB1tMj1UYC/uFiiLj6SM7CUXnFoi4tEbP9AbP66dc/rhcTXCY3W1weuhTBVEUeNYjU/mv/9oACAEDAAEFAP5uDGKZWU8x+M1qY7Gam7G67GYjaWBjdcARE1YLsXU2eZGrDEkykMBv7YwkJg6SYTB6rMdg9RRMHrlePGx4UfEs2418wiPiS34ypa5RVwR42K9EKFGLFEMilqxjREhFLP15fW2i/Qf9IIxTrH1WaXB6ajcZSVgVasECuuEbn+wkHUUSeVHU8jGUyI4VUiJ9/wBSR5QnqyFGchCQoyOukTCbATy1iuVQLhSlc2OBzUR3s3dhfW/5gwDTCQdXjgRDsE2SWQ5rGkJjahiqLWWq0kaLGxlk3zEDFktMKBDw155Ux5kjGwPZWxxOx0UiKyI9cY5MUo8D4kKWE1FcYjcEVXKOwRc3GUSUc0cgV+KZrAxY4juz/VjYxjIDElTUcpBvREfJVHCGJGvaZqwVag4L3LGEpcSvIuNgj8nYAiPA5mfU9+fagmmOxy/nNGi2SuxrvbEA3x9L3Z+I1M2eva+P8aq72ixBoNtr5e50RH4ELR42GYbWoVyhjsHilaqGjtVVA57ml9EJM8I6bjrBqY6euOkFdjUe7Gi840DUa2Kq5HhOXGRkbnt4wmXSokX40+UitGRzRmVHtdEHgAtEjjJ4WV4V01qYtozHWfjFnu8vlYkrzivc7FaVyjjquNiuXGx3eW1/tgoKNz0Ymefhz/GPJm2WSNH8RZJIxYW6AcorgJsdOd4/LKq+pHZ9LlxY/nPqXGBe1fxnPVsJ3hkBy4la7yyqRMHCG1EGxuL6pnv4zz5xcVyJjnY8iJlxdjhNOd53/DWq5avVjnWvpwRUbHY3EjiVVjDXPxxIqjHn1sTPVnjw3EVM9kz2xH+c84q4rkxzsU2KfzikXJM8UdLLbEVCleV3zr04cYwieca9ExCYi5/jP8fC/wDjPCZ5zymecRc9sUqY4i4rsk2saPkvcQpkrZphke9z1/VV7AaHkG/jSEYdFxp8QyZ96Z9+fbilz7Vz7Fz7Fz7M+zCyGMyTs8MOSdycuSryZI/dBYSAYHaZg8FuT0xu5CxNyj4u4x8duQcXcxYu5jx+6YXcZLsPsM42EK8i/wA1/wD/2gAIAQEAAQUA/m622KgoRTuX+MK1s7srxbFWV2urnkP2L32xfN5w5gakrs7ttRIf3AvYYx90JqA1nuDb3sjRufdO3Gb+3YXlLUssucuKKp1j2s4yjLY9uJZcn9iuaLVT3fLm2EPxdMCk8vD1GUHKPElZlp2Pn1grjnXdLtZG6SZ0jW63kHZo2+atu2vwqHcZtjImarzHqWlaP2Ho5MrhHc13LQv07DtmsanF2PuXwpRusO71rZpJ5s7L7OItPzTsjIHAUgzH8ecc6i275L4A10jeynHYXTOy0ybX2vMmzTZFbw9sW0LtnAF3Wx7a32Wjla1pvL+/yK7q+rA1XU3UHps+6U+p1usdidM2gtBXcewLbmjkyhjUwZrY6f8AO/Zg7JrvzyTyhpfE+vb73D5Q3uR/SJ99P1eo45qpVrtmna+//wCidpdBu+3fID7PXQdiOT1n9Vvui7vR7xxhL1mBzPyO6h6xQq6PSg4I4/dtfYum1qk1buhT3c6s5m0qcLYOdtbqo3JHcKxnW2n9t4yQ+YOe5/JbAlkwJlL2L3mmjbdyhte9OjTiFJ/zX1Wq0nh+i2bXdojfHYmdd7jy1slzpdWKPzFsmyXFlr3Yqyl8f8M1+uQdb37W502QfiWJJ3/sHZCsJfLXMXFFvpfZzWdyr9j5712ohcl9ltp2iZM3u5mOm2x7PLSzLaDgbPtVI232fadib9rQsMcT1SW1mce9cuaOTBUvRi8RuvdZeINXJBFpWpCt+QXFb1I5ZkQORfju05aDlbkDay3F9155R1/QrSP2Ai1rOcO0sq9kS+S6zTLi17IbvZAj7vtEZBTygdXXVxRy7zdNw2YTS/W18r1a6XizmJlHoHI20ZSdUef781N0J2f8fWuifGNKTUuJOKuPZsva4qLsG+QBDt+SAHfabU+QQdqU7utZJpuXPjvzoMlbnkwCQdxM5CjdGEqAC0LXF8NWT4V0waItkLxrWhci7ilF1E7BX0fXOg/Lds+p/wCderxWa/0w4AoSUfG/FGrRrCyrwobY4Isl7FE9JvJEeNl5yX75L387nWu2FI+xuSFwh3qWrA0juhPDciddfG3alr2961z3/wA3d1vKvkrhflfjSS6t2D79W66c5baOq6PzlHRdH+K4ia/1r68UA6TUeNNcFNt6CREbtldCiyN6g+83kSEJC8nwFZP5hRyXHKU4xbDkaa90ndpZEk7MWSyZbndiy1IUjZEhwoBCZXazJkP65dXtg5XtNb1yl1Gh+JMmNCj8sdydA1VvJvZPbtokA5UlyCP5RmoNOT7GOQnKlu8a8gXKNTkKfIO3erBHl3id4Xdn+jtyMuO2siLLuFBhbOSVpJZHKxpn4AJCNbSI5R6rJQkfUpEluqcL7duU3h/ooyAWlpKjXKv57Vcc7Pvuk7JWzIZ71kz6wyJbCimyvRJxmiHbPdn5r3timcplkHerpJvCvI5o0kuYz8hjzgVyBjuNkemKVa/WTldX6nmn8D7ztKad0X2eQ7Uep3EmskhQINbG/VzR1X0XldeTuo/JGlPn8azop5OmyQY/UjootQKiN14HhtGV2N14jWC18ps/qjn4urP9l0yUdY+lNRtHxdaWBtO6dcp3yan0ZrYzdQ6/cT6YrWta39vYuM+Ptry+6ecQXGXHQShI+T0DvEa7oNubFF0Q3pmA6J7SiN6I7C7BdEr5mROh4lSo6P8AG8Nuv9aOFdcfX1VZUR/5r//aAAgBAgIGPwD+dz5khEXllXNjxXuJ2A+rL6eWZbwOfyX08mmup5INGIe8c9GlVlEi6teC9oNdRXtDi48/6LqjEMzufK1YJdMuIJuOn+J1EDaUxzBur5IsTIjUObIiGXxPIeq+nEDYOdE2KVdw8GZPmzAbvpWE5hMtQr5LpypSOs0ROXlxD3Wd9aaeYQLpYW4JnfZ8tOtYPuM2MZW4W6m2VlzWD7fOiZnQaSOyMsNvFGeaRGMRUyYNtN+9RyICUxMiIzGP7ePREksd4DVWGUcLDVQH0QEvdGh73j4nkQBerX73roi528ua6IncOaLyIprbvesWZNPm5gNdJTx6tg8iujJodZCcRA4CvGzwWKUyMI0GgF5PjVDK+3hP7gv7rIm6OJzL9QixGlYPuMieT+nrAGgsRGTbIlYsmcZxNQYl6am0bC2xNnZrzakIdU99WjtkQsOR9vEDRjJMtvThj4napTy45cI6ZRwmUf8AKZwnU4fStJlI3mUifzG0lDHE66jv4KORnZk55cS4BOJuNZNoBNLllwyMvAHiIxcmoZ5kn8RZydAAFgCNaDxvQnElzBpapYSwO52f4MUywX0ww4kolzfpUY5jlzZXx0Lpi+r0podYIyy4Tp0ykMV4qbSgMYAa0DvYhlDNzPuM2zBlkS24iKCywPK5SlL7GJhqEzKUdb08xEDSU+VMQlpjMiMxs/DIfpJR/ezgTojHrkdws/uIX/z5cMmLOJZjzmQaBoRGnQ0ZBtK/+vOzc2Le2IEYPxZtuWo5P22X+3oeP+yX6p27BHCLkJZjzFtTjbxLbaG9SeEnP5Th2iom43psrKwu2uUnuJ03iIk9hWP7qWEmrWyrpN/Ep8gYhcw8Cv3sxjm6AK4b/wBXksGYMUdRqsUSY3M/BH9oPI0xG3YNScrFOcRJvzD299KxZchIawX7TElgKAeu8r29KOdnzEYC0yYRHM6mqjKP3EcI0DEZHZFnJTZZP2329a252bdCvSP0yAH4sx+lPnROE2sAS+uo6r7HtdCB+4zZw/JEGOz3TMW2RNwQjlD9rLAYkUpX3H8RLs1I6oxCH/WzWzRZo4EWd6ow+8yI5hGn2SuLxpLaYyJ1oR+3yBlk6XM5v/6kthJ1xjivQzPu3lM1wjR+o6/FNHIizXlfShGF4FeKd19TKiTravgnycuMTravFP2OvqSD3VRjlZRd2rdppoWEHAGfpuv+aJlOVukn1pRAEW96IR/DKnLtbQQEw0LLnlvIZZJlEazZNtLClw3qLAOC9YiR2ESBBGkAgsv+z965F9DLUBqjwAsihGUMDWEAONug+aecjK4AR5oZeUMMBoFnzWtYM6AkL9Gw2hY8nLAlrtO57Ph65xG9VzH2B0BCJk+ssgMqAg/9z7DdqTZmbJhosieCBkXptHz2JgeAtUDGNYl3trrr5eac2plDXiHfn2wzvwgtLjT18EWTjsr217OqQG9Fpu2pdMSdrRVkRxKrmN+kLqkZG8otRtItTCy1/RO7Eju9ywfhPheDamn1V0qlgT9gATr9w2Czb8u0wmHibQjAyxiPtNkm/LLQW0Gj2EaU8zhFjktXenEwdhCeUwbhUp4wJG1dMIx21+SPU2pgveQ1577lhmTPyQADarNfeirQ21Fvz1sm9wOqo8SrG7+iFGRBJc6lVWJlQdlEwXfvvQADRFp76UIxDAdrmgTfbdctf4R5OfAeCBzjiILh2OF9UfaKUBwvrRBNOHkyZULeqqVQlPXzVLVZVOyoqqo+B+xnqqs6aESe+koHNNNQ9T32rDEMB8Aw1bRr+Y0b0yfu3ZT4GAVnbZ2WKiqnKdD9rLkRsYcSy+pIRF1T6DzQcGZH5q+FiYUHxkjplr5hdUXGsVHZQrar1UprB5pu1wqo2IAB9gfyXtw3kt4VPgvqT/xDeJfyTxgCdZqfGzc38XriDuVARsPN10zO8cmVJjgea98eBXuj4qs48Cv9g4Hmq5g4Hmq5vCPzXVKUuA9FSAO2vmmiGH87P//aAAgBAwIGPwD+dzQiZbA6plS4KoEdp5OuvNA3E8l15hPAc1bI8V05ct5IfiVSJF2JN1Vv+SoZF7CPWgRkOqI3HeP4nTEnYHTjLI20808sMReeS+pm8B8/RdUjLaeTJ4wjS4E+LpsuDrpy2F9F1SA2VQ/czDuTxhiN4dAxg15XWQDqdzvAsTCYLaLPO1GUzhGmrIZYcPpZrtrHWjLJJxaibd+vwRowPhrG4/E2XEyNwVYiIvPJ0+bmjd39F1PLaeS6MqPBNCIC6IncFUEbU85gJpSfiaJxlhtc6f0XQIjwHkD5L6jtrBfiLfFDMEgRx7+a6jiOoAPyX08sNeTI+FFhDRJ1RL7n7HBdCEiSBYCaJ5F5E299AVVIyA6pAi5xXy9fgwZQc6dQGsnQsWd9Q3e3md6w5cREaNCMgaDh4K2nfyQE52nR53b05hIna2/YVSECRvbaTRAOALunhoVZkHUS39dq6iMV1T8k2Rlj/kfSK6rLzT/EMEZZhfbYN3NdBY8P6qh4j+i6i/gE2VHE2nRsGvdRdfSdRWGI6dJ13bNaeBY3eqaUX2FCUgwGj5pgVHKywTGFrA++VW4MmzImJvDdohAPKYBltNge4NvdNGETrJcN31LFmkbSiXD3A13L9vIgw3cZEWfpCozrCIsNpbgFjzi+r5DvxRMoHDs9CF9OTDiPFdcnGqwb9aw5IDD8Rs3DTtQeem5DHIybhw0rDhXRMi41802ZMkarPJMKBVTWLpffy5sqyfZTzdOA5vr5oA1onKMoisa8LfD07XNSC3Lg6GtRBsHmi5LG9YMoB/K896rqIJ1V8KU8k0YgXk8lim0pXq5YoHCfDeE0501CjphQK3sZwqA8G/5MnbieTq07hzf0VST31WIsBVUCsRxSd+AHfSmFnZmv+U+XbmZDtP3Rv17xQ8UKhNKq08V0iiKqVQpnr30Kgrw82Vad9nqreA9SfRUBa88mVg4P5q2i19llE4Fb05LKxU+AZET1Sqbo6OJ8Bf2xzco4ZRLgoDMict/c1Yg6wLWOqpF6+mcZZ+mvFnbeycQLbDyTCne50akncPN1Uk97mQ7+KrVYo0R7NSqqqqsVE3xVLzNkfU3dwjmTLyNvawDkrFnRMY6rJHkPHzTQiBstO02nirFYmTgJmVAEzKxWfG/banzJiIvLcNJ3LD9uP7j6DnwRnMuTp+A42GKyWq43HXrbQnVP/BP7mZEEXueFvgmy4mR4D1PgmBEBdbxt4J5Fzf8AGIy6oatI2H08l0yY6jQ99j/xSZEAXlMJ4jcH+XivpQ3yPoOaaUyBqFB4VO/+L0TkN9OFirhltHJl15fA8wVXLlxHyXsn4c17J+HNUhLwVMuXgv8AUeI5LpyuMvkumMRxPqmOYQLmj5VTyJJvL/zs/9oACAEBAQY/AP8AXd8+bzVjiYvB7ueOGv2c2Ffu0Wu++cQhHWNLhZHr5cI+Tfq0Vtb++yz/ALK2tpIA32Gb4horiOxsjex70lnuI4tx09say/27aZMF2NbwoQeM03z3HE0rvx+EdNIzLhrCK4JWCXhHv5kBpHJ4eIpqVL3vXEXfwkxzi3gimWJ/2SwiiBofQ6+SXMWd1Cjqj3K41qDnTjyIdQCxNBqeVpcWHtFrLE9nK1WY0QFkuQEBJAJP09TqRZ7TAWC2pX8Za3Dyo5r1EbxyygknYe06hxE7fyfLzsI4VaRZrSaRiQEiuAFqTTYMq77Cp/0nPK5eyxqf4rq4jhH/ABsNMk/eljcOtarZ/Jdio8OUCutfSumjxseVzko+lLe2EYb7DM6H9WpE7f7BkkKglZru4Y7eB4Rxjw3I5f7dNHjMTZYkMQI2t7Tm1G8S08kiig9NFMj3Rl4mndUNqLmSCKtafTCY1H2Eae67h7lgsI0JMss8qK1TSm7sD9u+imT73hv8hGaSRWIe6qSfcD8dRX79FsTg77IFX+Nbm44WytIx9p35UFPvOrpe2Oz7Oszt8M9zAGSIjwUk8n5DevHY9dFL/uG6xsHKv4ixuREVpuE+OIqaVFDTqPHVytxe3GQ5mhtLdJEDB2PMGRfcrHepB3r1OmPbGCv8lgizc8m8cdpbxggfwYbi7dfl4kULKW6aa/z/AG1kMDaTcku89DG2VSXagLyWnMJtSrMF38RrGYbE2933RkCwtsLZQW8css0xG4SgYAH6mLbCm51mu8L6wxjwYcG4ucC90091wUGVyGiX4DIgqwiL8qAkdANWdn3YlvY2cqCK1ylnExWBiNpGjXcptQsvu9NYue5uRdZPFotpfTGUStMqqGguOQJJEsZB5Hqa/wBb8b3N3Bj8Da/sy31xHCG9FDkFj6DTxWGTvu6LhdljxlqeJYioAe4MINfMV1LF2b+V9wShol5k52KUNKHhEij/AI9O1nJZ9uRGSiLYWcbsUbzMwlIAB6g11LHnO/8AMyl0BkgW5kjQhiAP4asAAfHbUkmcyEkrMymCYsXduQ3qfTfbRGcztlCpZWcXU6K5YEbe9qn19NBrbK2d+irxlXGqZOJ/wxsoA6eNdNFgO1Gu1YcI5rt0RS37NRvStep2182GwXxxxq0ZufjSBGmLUIU82qoNdyOPTUdi3cd/HcSOYY8RgP4sjTE7BJGAMrEncJX021FP3bnbyyldmIxgU5C/+Jhss0fyvBC48RyZvPTz9t5oX9ygLW2AycH8sdvSG7UvEpI8GVQegI1ddvX/AGJkosoJJFurC/Sa2EUMfuPSqMgpUMGK+RqdRfyPtBcBhXUU7hykrQWXGSnuWWTlLKQOixqfWmrZu7vzCvEvgvIR4mys8Xa0HihuVeY+pIFdR5W7vsx3dj7cq0lnfZmFbN2B2E8dsI2ZT4oWAI1JK4tktcbEYlfikdtbwxD2pbxiiogA6adMfkLb5FrG1xbSqpNdqNxJUr6Hrq87mxmIxmHy+WVYsrl7G3WO5midg0lFUhBWnuIA5DV9JAowva2Hx85bHiUssheNo3kYE+55iQPPw1bFAxuJCHqtUaBTusRA6+3rrDi1vLuK7xmEnsszaXH0zJaXQSAqK/sGSgJ+ndan+o/cneuWXHWbyfBj7RB8t3e3JBK29rAvukkYDoNgN2IUE6mx/wCXsVt+WuEZzGl1eAT5aRehZmoYoiRuFWpH+I6bO9xdw5HuTIStzupZp3nO+7Es7H6q9B08NW1pdYtY7+V1EMThmnYeB/ijcedD9+nhhxbXFx8TNZBZIURmUDgkiyUMfyVIFenjTV3fdp/l3dXMVnaLPO00M5hSUtxEUUyxsk5I9xeMlQNgTqG0xuYweCshGfiyD2yzS/K6++3kidvkLxncALsdqaglyXfmdweIvVMcQdWSeeFjyk+CyhEctG8GYqB5kauZn7m7kvcgqEtNdpa38cdN2MsMb/LxH71dVn7Rlz+OmJFr3RYQte203HcKyiNjbN4lJE2/xHQt8J209phnpFd32VU2lgg6iNpZlDTV8AiNqK8/Mj8wr1SyLMmOsZRhLYRnYLEUWW9kXw/YB082IhMeQeMpLfWEKx3cmwHuvbx5Zvt4gV1M2Ea07ZsLONjc30Uge5l8eUtw1KfYo0bG8zUs8ckg+O2yauEmFB9Hzqtar04mtNM9zZlXk/yUtLr4kjjI3ThKr7fZ11PNhbS2xjQozLfTS/PLEnUlZHosY8a021dQdpwSZpUkYT5maVkjkeprwNCzj12HloxdxznE3gB+WOUSOrHzV4waj0Irpe38O00PbSyK+RuJQY2vCpqsYStVjB3Nd2OkyGMunx98h5RT2p+MCnQECgI9KaFrcwR5FkXiLhZWhLerqKj9FNRrm7sRY2F/kixUBYRl/B3LElyPCuw8BqOCEPLK7DjHGCzsa9ABUmurjvju+9t8D3N33LNLjLHJXUVvOmBx7fDDJ+GdlaJGlEh9w3FG/a3kvO3M3ZZy1hcxyz2U6TKrgkUYoTTof6czl+4LmaywXZ11c4ns+C2kif4reFUS6maB1JDyzByWFTw4L4aZ7rvHJwSVaXH460igupJWRqc60QKhI3JYAatu3+zBlLm/vCUtMXg7aG6uJCtOTmaYhVA6lvpXz1b4uftTuW7sS6zQNk721hgtpySryy3aSEU47njsPAV1bd4fmxnIclk4kBsbiSOSe3h4Cqw462uGLTup6zSAKD9IGpYLy8uktRWO3uLSb+Jbb+2iAgEeYFNDNXOTOVvgKCSHF28V30qoN1IpYEHYnVn2V+XWLnyXdPch/C4ntzFuBd3hrQyXl07KEjUGskjssaiusded2Q4nJx3v8V4+zMuuUvccpcqpuVthQgkGhRjUb01DkcjBYZ1blArZC3drO7JHhLLFQEr4hlr56uZ8BYWuIljhPLLzTm6uIgN2MckntiA8wKjV1J2tfR22Lkknhj7jumM73U8VCyxQhuaj3ikkgCnw1dyv3b3GJHjC21v81tQTBRzaRljUcC1aKoqBtXx0n83yN/mChDCO8uneNWBNSsdApJB8tqa+C5mmnhjPKKOWRnAYCnOhNORHiNccR3Nf2UagUt/lLoPsV+QGhFnu4r3JW1f/AKskhWIkeaLRT940EACqBQHXuoT0Ip/fpY1qC1AigbknwA6k6W+wfakuKwrsyDP55/5dakqASV+UCVxuN0Qj11Hc9298QWa8qTY/HWrST1X6/fKwUCv0mhqN6DQfIYifue4gYSficvcM6U3AHwRCNKV8wdXQwGBxPb6tJulpawxSDyAcLy2PrpEjIeQyGYvKAZK02bffp+rWLxtzdc8f3JMMXNEPb7pgBCeP+7MFAPkzf0y29m6Wltk8fBlJIE25vJzSZzsa/I0RqPP7dTWyLHb2cDiOaOE0MrJsflK0B4DZVHtUepJ1lrHIyxWVz3TbWy2GRlIjQLAzhrPmzezmSHFaBjt4DVu1paY1pLJ/kivJreGUNUftM7FSBTavjpsVZdxfic1kGWO9yYpcrj4GNHfghClgPojU0r9VBqS7/LPN9yZWwnKtkLTun4i1wxQF5Q0EjGKTnUUX2kU20bewx0GPkbb8VczvcFf3UARf011kZzmp/wCY5lm/mWUikeG7lQjj8LTRlW+HyjHt9NLJbzNaug2eA/G4r13Wh09/gcrcYu5kNZTE3tkP/MQ1VvvGvwOd7inu7AHm9jGFhicjxdYwvLfz1xWiKKDbY7aI5g1603OtySPPx0RyWvkTU/oGg3bnYuezEZ4j5rawmMdW3X3soXf7dSR//iThFRlBmy93DbK3Km6+5ywAO5A/XpH7w/MTGYa9loBj8XbSX3Dl9LNNI0CkedBq3m7ozOb7xuBu9o7pj7SQ8SCtLctKRX3f5g6ahv8AtjsnF4e/so9si8ZuJiKkh/kuDIystTRgRt9g0puLoySmMBJGJZQEAO25JWh6anP4hSFUiMxUPMjpsaUB9dQR29qLSS3Vy9wXZ3uHO4Zq+1AtBRQPt1NN8zF3Ys7FupPXc+NdKTJ7jJVhUbgj/b01+XKWys0k2ex1eIqAFuYyS33D+n8v/wAyjbNd9uz07X7pIpS3M0jS2kr9CI5OcsbMDs3AdW1moYrYWkPzsIV4yIGAJHJVkVSFNOmvjk961JofM9dUqwH+Hkaa/hpQHoQNNQj1ProEsBXYnw0OD189tBajmelTv+gakftPsfN56OAL8lza2UrRLy2WshUJU+Ar6+Glu07RgxcL9fx9/bxSDelGjRnYHxoRpWzncGB7egIBYiWW7lofJFVB91dIO5fzIyl3PXky4+1it4wv2v8AKdRz3XbUmfnifkhyN5NOpO1AyVRCPGhGktsL2ThMeIRSEw2MCMm9faxQnc9a64KI4RGKqFoePhQaKxswH1fMANyduI9Tpy8qwyFQEkchj7d+h1JFNeRzWpHsWElnBHj4UPpp4ox8sTg8ZZDQ8abdPEdd9RxNPLWSvExdAoPiB4b6dDI54E8yR99dtE+4iQAe3bbyHjXz0xoXLNyDbPsw2JHqdQqSZWDbkDx6nc7bDx1P+aeWtWixXbny2vb3Pb8Rfyx8JHAPVYInI/eceKn+nMdo914uLM9vZ63a2yeOmrxdCQQQQQVZWAZWUhlYBlIIB1kMl2L3LZd63uFUfyDB5gJaXt9bVNbeS6KiJJkFOMgZEc/UqaeDvL8nO7+zx85t4ru/x9y1lNIoqywXSxtDLtvVJG20lkO28iLqc/wrZrOf5W2r7VKVOxrsNWtxZdkXeHxtyaR5PLulhCBv7uEpEp6eCHUEndP5oWVhJJX5LfG2Ml0QabKGlkiqQeu1BpJu4O9O4e4JEWr2cC2+PjYkbAMFmf8AWND4+wLXK3YAf58zcXF+xA8ODyBBX93Uo7a/L/tzAfMvCaazxtvGWLDr8hTnUDyOoMffQLe2yBRb2rCkacehVK0FPA6jjVI40jC/EooqgD6RQbfdr5PkXkW35UK1A8/P01xM6yhyahfcAPIEkU9NfJFKjfHUqD7SFPmPHREbbA0ZSQR16Aj06jSskyQ2/IneoYmvQ/d4DTqs7qhansqCCfGn9vppHa4+X4twCxIIr4jx0Z1KqzN/GOwZW8umwPhp2eZSCWpxJPHbxJ/t0CGCh9llqRQkUFfs8dHk4r+11LdaVqfPRdkYK6lV5kqSw6AU6ageVCIwarM1QWHko609dW7myfEdm46Zf51npFp5N8MXIUeWlDxGwqC56A4rtrt2wjxmFw1uttj7KIUVEXqSepZiSzMd2Yknc/0z3d5cRWlpbI0tzdTOI440QVZndiAoAFSSdSYrsbLWfdOZWhny0dZsbBRvcgkRl+aQgbcDxFaltuOmuMn3VfXbqWlht1kK28Jau8NutIl2PHlx5U2r11DNPcyS3CKyxzNKzSrU0IMh9wqNtj00yG6ZaH2lnJVt6jfx/t1HcRxoWbkFmdiwHmOP69Kn4nmCW9oVacvQ/rOmla6Ln6HblUA16A+B0izZCR6A0cs1Vp04iv6Dp55LmQlhTnzY1FenXp6a991KqgGoBpUHr476aM3DswFVWvTbrtvrjI7EEjYnr5V0UjcOsopPy6KtegPp106RTLu5IIB4n9PSvloCpc/UXYmnXbbwodcS/JgfdUdK7Einjqo5HlsWUbinif7tNCVYCi8RxG61rTUXCNeLHgUG25PtO4oRU0O+mQJWUk84j4ONuo8NVfH82Cg86cQegou2/n00tl272te5uYyKjJYRGYR9aNNIQI4wfN2A1b5f8zbyGJBxcdtY5ucpI34z3X0oB04xA+kg1ZYTBY+DFYrHxiKzsbdQiIo36eJJ3JO5O53/AKlpN27JcZGLt+WW5yvacW/42JlAE0SD/MmtytVQ/UrOAC/EGWJWKxEsFBBodyDUHxrtqTm7L7eNB403Ar5A6dXMnNh7SoFF8idxsTrlMQCppwA6nxNDWmqFCCCSAevEDp6HVUYIaAcidwD5+WlVUYoAVIOxPiKnx0JJn5xopJUdBQdSd9waAaHFm5ADYDcV9B46FWYheg47mnlo0HToSf1aqGoTuh2H3kfZoAxvIob3qTQEeIqNJPGpeIjeEmjI1N+nUDwP6dcQqh2YFkBJ8On2a+RYaK1V4DatfKlfHS0hNQBRFWlaeh8Pt0C6OD1OwJX95uigf2atp+3eysll7edgbW6Ns0VryFCWFxJwhIIqPrpoz9y5jH9twy0JtYQb6da0JUqnxx7f+42orq9xs/dV5FQ8spIDb8h/20QSMj0cMNRWWOs4LCzgHGG1to1ijQDwVEAA+4f17nL2ar2x3XLyaTIwRhra6c71uoBxqxP/AKiEN/i5dNXD3fb1zlMcnJ1y+M5XlqUU7liq8owf+Yq6cR2DNJGKSlQarX93RWe3kRgdmKClD4VGx+3VAsrACiqem3iCf79V/hqwNWJYADQUyB5F2pGNzXyI2A+3XBYPjhBBWJfdyNPqY9aj9GirAjau2wPiDt/fplW3cgD66Vr/AOOv8lgAKsFFd6+J9dD+AsVSefLYCnh5+u2gVrXp5V+/y0wuIppalVCRoevgSfT9eoosdj7vMzO4jgFtA7yNUgKGSNSVJPkOJ9NQtL2o2DtZSD8+VmS1Cg+LpVpT50EfXUT9293NJxUcrLEwBdx/3Fxyr/8AENQzY7tS3yOQhA45TK/9bNUftKJaoh/cVdBVAVVFFUbAAeX+kkPcPZ2KyU0v13b2yLP90yBZB9zac2UWWwBYEcLO7+WPf/duknP6CNM+E70KhqfwslY/NQDyaKaMf8GqWveGFYUoUNrPCp+0D5NKsPcHbYRa0IN1Xf0aA/dpVbuHtsqprWt0P00g303zdw9uxt+x8a3TAAHaoMYGiJe7sMiuSWEcNwAKnoBQa4//AL3Fww0oYlsJX5U6AkyL00P5l+YUbe0Djb4qnEjyZrmv6tL/ADPuDNZNgat8X4a2Un7opGH/AJtJPb9lW+SuUp/1OVlmvySPEpO7x1+xdLaYrHWuMtUFEtrSFIYwB5KgA/12f//Z;" vertex="1" parent="1">
          <mxGeometry x="20" y="214" width="172" height="172" as="geometry" />
        </mxCell>
      </root>
    </mxGraphModel>
  </diagram>
</mxfile>
